<svg width="670" height="575" viewBox="0 0 670 575" fill="none" xmlns="http://www.w3.org/2000/svg">
<g clip-path="url(#clip0_59_2)">
<g filter="url(#filter0_i_59_2)">
<path d="M0 200C0 89.543 89.543 0 200 0H335V575H200C89.5431 575 0 485.457 0 375V200Z" fill="#1A535C"/>
</g>
<g filter="url(#filter1_d_59_2)">
<rect x="91" y="94" width="348" height="399" rx="92" fill="#4ECDC4"/>
</g>
<path d="M470 0C580.457 1.53013e-06 670 89.5431 670 200V375C670 485.457 580.457 575 470 575H335V0H470ZM502.5 114C473.505 114 450 137.505 450 166.5C450 195.495 473.505 219 502.5 219C531.495 219 555 195.495 555 166.5C555 137.505 531.495 114 502.5 114Z" fill="#299E98"/>
</g>
<defs>
<filter id="filter0_i_59_2" x="0" y="0" width="335" height="575" filterUnits="userSpaceOnUse" color-interpolation-filters="sRGB">
<feFlood flood-opacity="0" result="BackgroundImageFix"/>
<feBlend mode="normal" in="SourceGraphic" in2="BackgroundImageFix" result="shape"/>
<feColorMatrix in="SourceAlpha" type="matrix" values="0 0 0 0 0 0 0 0 0 0 0 0 0 0 0 0 0 0 127 0" result="hardAlpha"/>
<feOffset/>
<feGaussianBlur stdDeviation="20"/>
<feComposite in2="hardAlpha" operator="arithmetic" k2="-1" k3="1"/>
<feColorMatrix type="matrix" values="0 0 0 0 0 0 0 0 0 0 0 0 0 0 0 0 0 0 0.34 0"/>
<feBlend mode="normal" in2="shape" result="effect1_innerShadow_59_2"/>
</filter>
<filter id="filter1_d_59_2" x="71" y="74" width="428" height="479" filterUnits="userSpaceOnUse" color-interpolation-filters="sRGB">
<feFlood flood-opacity="0" result="BackgroundImageFix"/>
<feColorMatrix in="SourceAlpha" type="matrix" values="0 0 0 0 0 0 0 0 0 0 0 0 0 0 0 0 0 0 127 0" result="hardAlpha"/>
<feOffset dx="20" dy="20"/>
<feGaussianBlur stdDeviation="20"/>
<feComposite in2="hardAlpha" operator="out"/>
<feColorMatrix type="matrix" values="0 0 0 0 0 0 0 0 0 0 0 0 0 0 0 0 0 0 0.25 0"/>
<feBlend mode="normal" in2="BackgroundImageFix" result="effect1_dropShadow_59_2"/>
<feBlend mode="normal" in="SourceGraphic" in2="effect1_dropShadow_59_2" result="shape"/>
</filter>
<clipPath id="clip0_59_2">
<rect width="670" height="575" fill="white"/>
</clipPath>
</defs>
</svg>
